<svg width="56" height="58" viewBox="0 0 56 58" fill="none" xmlns="http://www.w3.org/2000/svg">
<g clip-path="url(#clip0_937_2741)">
<path d="M28.4153 1.20784C27.8204 0.440111 26.9206 -0.00021251 25.9465 -0.00021251H25.946C25.2526 -0.00021251 24.5949 0.224002 24.0445 0.648659L19.4094 4.21988L19.3303 4.28039L19.5551 4.21988L28.8113 1.71895L28.4153 1.20784ZM4.57 15.6527L1.20958 18.2417C-0.149647 19.2892 -0.401557 21.245 0.648879 22.6006L9.59519 34.1495L4.57 15.6527ZM54.9021 35.3992L45.9557 23.8503L50.9804 42.3477L54.3414 39.7581C55.7006 38.7105 55.9525 36.7553 54.9021 35.3992ZM35.9937 53.7804L26.7397 56.2808L27.1357 56.7925C27.7305 57.5602 28.6303 58 29.6049 58C30.2984 58 30.956 57.7758 31.5064 57.3517L36.1416 53.7804H35.9937Z" fill="#82BD69"/>
<path d="M9.81148 8.25194C9.80823 8.32056 9.80661 8.38971 9.80661 8.45887V29.7619L5.73055 14.7585L5.53877 14.0529L5.34754 13.3473L5.17797 12.7238C4.72833 11.07 5.71213 9.36005 7.3704 8.91162L9.81148 8.25194Z" fill="#4C8435"/>
<path d="M39.2193 4.21988H24.7343L29.7074 2.87621L30.4149 2.68495L31.123 2.4937L35.2218 1.38613C35.49 1.31374 35.7652 1.277 36.0393 1.277C37.4413 1.277 38.6765 2.2214 39.0438 3.57317L39.2193 4.21988Z" fill="#4C8035"/>
<path d="M30.8148 53.7804L25.8432 55.1236L25.1357 55.3148L24.4282 55.5061L20.3294 56.6136C20.0612 56.686 19.786 56.7228 19.5119 56.7228C18.1099 56.7228 16.8747 55.7789 16.5074 54.4271L16.3319 53.7804H30.8148Z" fill="#4C8435"/>
<path d="M48.1808 49.0881L45.7397 49.7478C45.743 49.6792 45.7446 49.6106 45.7446 49.5414V28.2384L49.8201 43.2413L50.0119 43.9469L50.2037 44.653L50.3732 45.2765C50.8229 46.9303 49.8391 48.6403 48.1808 49.0881Z" fill="#4C8435"/>
<path d="M41.4941 5.57057H14.0571C13.3826 5.57057 12.7613 5.80181 12.2683 6.18865C11.9557 6.43447 11.6946 6.74297 11.5044 7.09523C11.3749 7.33565 11.2785 7.59606 11.2216 7.87106C11.1815 8.0607 11.1609 8.25736 11.1609 8.45888V49.5414C11.1609 51.1342 12.46 52.4297 14.0571 52.4297H41.4941C42.1691 52.4297 42.791 52.198 43.284 51.8106C43.596 51.5653 43.8566 51.2568 44.0468 50.9051C44.1763 50.6647 44.2727 50.4037 44.3301 50.1287C44.3697 49.9391 44.3902 49.7424 44.3902 49.5414V8.45888C44.3902 6.86615 43.0911 5.57057 41.4941 5.57057ZM25.7538 15.4733C26.1661 15.4733 26.561 15.564 26.9283 15.7429C26.9982 15.7872 27.0719 15.8266 27.1472 15.8601C27.3568 15.953 27.5806 16.0006 27.8124 16.0006C28.0443 16.0006 28.2648 15.9541 28.4734 15.8623C28.5514 15.8282 28.6278 15.7872 28.7003 15.7407C29.066 15.563 29.4599 15.4733 29.8705 15.4733C31.3489 15.4733 32.5516 16.6727 32.5516 18.1476C32.5516 18.2622 32.5445 18.3767 32.5299 18.488V18.4902C32.5288 18.4999 32.5272 18.5102 32.5261 18.5199V18.5221C32.4107 19.3498 32.1025 20.1542 31.6339 20.8485C31.1745 21.5292 30.558 22.11 29.8515 22.5287C29.8429 22.5341 29.8353 22.5385 29.8282 22.5428L29.8255 22.5439C29.4777 22.7503 29.1597 23.002 28.8786 23.2927H28.8775L28.8179 23.357C28.3731 23.8351 28.0438 24.3905 27.8395 25.007C27.8298 25.0362 27.8206 25.0621 27.8119 25.0837C27.8054 25.0659 27.7983 25.0459 27.7908 25.0227C27.5898 24.4084 27.2496 23.8319 26.8064 23.3559C26.5095 23.0366 26.1683 22.7616 25.7923 22.5395C25.7885 22.5374 25.7847 22.5352 25.7804 22.5331C24.361 21.694 23.3929 20.2877 23.1237 18.6723C23.1231 18.6701 23.1231 18.6674 23.1226 18.6647C23.1047 18.5583 23.0906 18.4524 23.0798 18.3497C23.0749 18.2833 23.0722 18.2152 23.0722 18.1476C23.0722 16.6727 24.2754 15.4733 25.7538 15.4733ZM16.6266 25.1815C16.7398 24.7882 16.9354 24.4359 17.2068 24.1339C17.2718 24.0772 17.3325 24.015 17.3866 23.9497C17.5329 23.7752 17.6391 23.5747 17.7019 23.3543C17.7659 23.1322 17.7821 22.9042 17.7501 22.6773C17.7393 22.5963 17.7214 22.5147 17.6976 22.4353C17.6266 22.0344 17.6478 21.6303 17.7615 21.2353C17.9251 20.6659 18.2632 20.1785 18.7388 19.8263C19.1993 19.4854 19.767 19.2974 20.3375 19.2974C20.5867 19.2974 20.8359 19.3325 21.0781 19.4022C21.1431 19.4205 21.2081 19.4416 21.2709 19.4648C21.3652 19.5027 21.4616 19.5448 21.5575 19.5902L21.5629 19.5929L21.5716 19.5967C23.0532 20.3001 24.1416 21.6157 24.5587 23.2073C24.5598 23.2116 24.5609 23.216 24.562 23.2203C24.6725 23.6417 24.8432 24.0442 25.0696 24.4175C25.406 24.9729 25.8676 25.4581 26.4045 25.8201C26.4245 25.8336 26.4418 25.846 26.4575 25.8579C26.4337 25.8601 26.4066 25.8617 26.3757 25.8628C25.7251 25.8887 25.0994 26.0513 24.5154 26.3458L24.4401 26.3836V26.3852C24.0809 26.5743 23.7499 26.8104 23.4547 27.0876L23.453 27.0892C23.4465 27.0951 23.44 27.1016 23.4335 27.1076C22.9216 27.5884 22.3311 27.9645 21.6783 28.2254C21.0179 28.4891 20.324 28.623 19.6159 28.623C19.3553 28.623 19.092 28.6047 18.8336 28.5674H18.8315C18.8212 28.5658 18.8114 28.5647 18.8017 28.5631H18.7995C18.6879 28.5458 18.5758 28.5209 18.4652 28.4896C17.0443 28.0828 16.2192 26.5992 16.6266 25.1815ZM20.5596 34.8054C20.1587 34.7346 19.7876 34.5763 19.4555 34.3359C18.2594 33.4693 17.9934 31.7934 18.8623 30.6005C18.9295 30.5081 19.0032 30.4195 19.0807 30.3379L19.0817 30.3363C19.0888 30.3287 19.0958 30.3217 19.1029 30.3147L19.1045 30.313C19.6316 29.7657 20.2546 29.34 20.9572 29.0472C21.6436 28.7603 22.3696 28.6149 23.115 28.6149C23.2862 28.6149 23.459 28.623 23.6291 28.6387C23.6394 28.6398 23.6475 28.6403 23.6557 28.6414H23.6589C23.796 28.6544 23.9352 28.6609 24.0728 28.6609C24.3377 28.6609 24.6032 28.6371 24.8643 28.5912L24.8654 28.5923L24.9531 28.575C25.5951 28.4485 26.1888 28.1924 26.717 27.8132C26.7425 27.7953 26.7647 27.7802 26.7848 27.7673C26.7799 27.7856 26.7734 27.8062 26.7663 27.8294C26.5664 28.4442 26.5025 29.1098 26.58 29.7549C26.632 30.1871 26.7463 30.6096 26.9191 31.0094C26.9213 31.0132 26.9229 31.0175 26.9251 31.0219C27.5789 32.5325 27.5329 34.2381 26.7994 35.7023C26.7978 35.705 26.7967 35.7071 26.7956 35.7093C26.7468 35.806 26.6959 35.9006 26.6444 35.9892C26.6092 36.0459 26.5713 36.1026 26.5312 36.1572C26.0285 36.8477 25.2164 37.2599 24.3594 37.2599C23.7911 37.2599 23.2472 37.0832 22.7862 36.7488C22.4525 36.5073 22.1865 36.2026 21.9947 35.8428C21.9643 35.7655 21.928 35.6904 21.8869 35.6191C21.772 35.4208 21.6187 35.2511 21.4307 35.1155C21.2449 34.981 21.038 34.8881 20.8148 34.84C20.7313 34.8216 20.6457 34.8103 20.5596 34.8054ZM22.5771 43.6541L22.174 43.8118V43.8145C22.0846 43.8426 21.9903 43.855 21.8934 43.855C21.7379 43.855 21.5846 43.8172 21.4497 43.7486C21.1127 43.5703 20.9139 43.2267 20.9318 42.8507C20.9497 42.4817 21.1739 42.1613 21.5212 42.0186C21.5618 42.0035 21.6458 41.9781 21.7146 41.9549L21.7861 41.9322C21.8322 41.9192 21.9064 41.8938 21.9443 41.8814C22.0207 41.8533 22.1279 41.8155 22.1843 41.795C23.7044 41.2174 25.0533 40.1693 25.9895 38.8467C26.1731 38.5901 26.3568 38.2924 26.535 37.9666L26.6732 37.6948L26.7647 37.4987C26.7902 37.4403 26.8183 37.382 26.8411 37.3231C27.0323 37.1556 27.2035 36.9649 27.3563 36.7558C27.4126 36.6796 27.4636 36.6035 27.5123 36.5246L27.5275 36.4992C27.5887 36.3922 27.6499 36.2804 27.7111 36.1583C27.7415 36.0945 27.7723 36.0335 27.8027 35.9703C27.826 36.0259 27.8536 36.0794 27.8791 36.1329L27.8997 36.1734C27.956 36.2852 28.0145 36.3949 28.0757 36.4992L28.086 36.5143C27.6472 39.5998 25.4819 42.4028 22.5771 43.6541ZM36.1471 34.3359C35.815 34.5763 35.4439 34.7346 35.0436 34.8054C34.9569 34.8103 34.8713 34.8216 34.7879 34.84C34.5652 34.8881 34.3577 34.981 34.1719 35.1155C33.9845 35.2511 33.8312 35.4208 33.7158 35.6196C33.6746 35.6904 33.6383 35.7655 33.6085 35.8428C33.4167 36.2026 33.1502 36.5073 32.817 36.7488C32.3555 37.0832 31.8116 37.2599 31.2433 37.2599C30.3862 37.2599 29.5747 36.8477 29.0714 36.1572C29.0319 36.1026 28.9934 36.0459 28.9588 35.9892H28.9582C28.9078 35.9022 28.858 35.8098 28.8103 35.7152L28.8082 35.7098L28.8027 35.7007C28.0698 34.2365 28.0243 32.5319 28.6781 31.0219C28.6798 31.0175 28.6819 31.0132 28.6836 31.0094C28.8569 30.6096 28.9707 30.1871 29.0227 29.7544C29.1007 29.1098 29.0362 28.4442 28.8369 27.8294C28.8293 27.8062 28.8233 27.7856 28.8179 27.7673C28.8379 27.7802 28.8602 27.7953 28.8856 27.8132C29.4144 28.1924 30.0076 28.4485 30.6495 28.575L30.7335 28.5912H30.7346C30.9968 28.6371 31.2639 28.6609 31.5299 28.6609C31.6675 28.6609 31.8067 28.6544 31.9437 28.642H31.947C31.9551 28.6403 31.9638 28.6398 31.9719 28.6393C32.1436 28.623 32.317 28.6149 32.4877 28.6149C33.2331 28.6149 33.959 28.7603 34.646 29.0472C35.348 29.34 35.9716 29.7657 36.4987 30.313L36.5003 30.3147C36.5074 30.3217 36.5139 30.3287 36.5209 30.3363L36.5225 30.3379C36.5995 30.4195 36.6731 30.5081 36.7403 30.6005C37.6098 31.7934 37.3433 33.4693 36.1471 34.3359ZM38.7437 27.2151C38.3964 27.8402 37.826 28.2924 37.1374 28.4896C37.0269 28.5209 36.9148 28.5458 36.8032 28.5625H36.801C36.7912 28.5647 36.7815 28.5658 36.7712 28.5674H36.769C36.5106 28.6047 36.2473 28.623 35.9873 28.623C35.2787 28.623 34.5853 28.4891 33.9244 28.2254C33.2716 27.9645 32.6811 27.5884 32.1702 27.1087C32.1626 27.1016 32.1561 27.0951 32.1502 27.0892L32.1485 27.0876C31.8544 26.812 31.525 26.5765 31.168 26.3874V26.3863L31.0873 26.3458C30.5033 26.0513 29.8775 25.8887 29.2269 25.8628C29.196 25.8617 29.169 25.8601 29.1451 25.8579C29.1608 25.846 29.1782 25.8336 29.1982 25.8201C29.7351 25.4581 30.1966 24.9729 30.5336 24.417C30.7595 24.0442 30.9307 23.6417 31.0407 23.2203C31.0423 23.216 31.0434 23.2116 31.0445 23.2073C31.4611 21.6151 32.55 20.2996 34.0327 19.5961C34.0349 19.595 34.0376 19.5934 34.0397 19.5923C34.1378 19.5464 34.2359 19.5032 34.3317 19.4648C34.3946 19.4416 34.4596 19.4205 34.5246 19.4022C34.7668 19.3325 35.016 19.2974 35.2652 19.2974C35.8356 19.2974 36.4034 19.4854 36.8638 19.8263C37.3395 20.1785 37.6775 20.6659 37.8411 21.2353C37.9549 21.6303 37.9766 22.0344 37.9051 22.4353C37.8818 22.5147 37.8639 22.5963 37.8525 22.6779C37.8206 22.9042 37.8368 23.1322 37.9007 23.3543C37.9641 23.5747 38.0703 23.7752 38.216 23.9497C38.2702 24.015 38.3309 24.0772 38.3959 24.1339C38.6678 24.4359 38.8629 24.7882 38.9761 25.1815C39.1733 25.8682 39.0909 26.5905 38.7437 27.2151Z" fill="#2B4522"/>
<path d="M19.4095 4.21988L19.3304 4.2804L19.5552 4.21988H19.4095Z" fill="#231F20"/>
<path d="M28.0958 36.4954C27.657 39.5809 25.4916 42.3839 22.5868 43.6351L22.1837 43.7929V43.7956C22.0944 43.8237 22.0001 43.8361 21.9031 43.8361C21.7476 43.8361 21.5943 43.7978 21.4594 43.7291C21.123 43.5509 20.9237 43.2078 20.9415 42.8312C20.9594 42.4622 21.1837 42.1418 21.531 41.9997C21.5716 41.9846 21.6561 41.9592 21.7249 41.936L21.7964 41.9133C21.8425 41.9003 21.9161 41.8749 21.9546 41.8625C22.031 41.8344 22.1382 41.7966 22.1946 41.776C23.7147 41.1985 25.0636 40.1509 25.9998 38.8283C26.1834 38.5711 26.3671 38.274 26.5458 37.9482L26.6834 37.6759L26.7755 37.4798C26.801 37.4214 26.8292 37.3625 26.8519 37.3042C27.0432 37.1362 27.2144 36.9454 27.3671 36.7369C27.4235 36.6607 27.4744 36.584 27.5226 36.5057L27.5378 36.4803C27.599 36.3733 27.6602 36.2615 27.7214 36.1394C27.7518 36.0756 27.7826 36.0146 27.813 35.9513C27.8357 36.007 27.8639 36.0605 27.8894 36.114L27.91 36.1545C27.9663 36.2663 28.0248 36.376 28.086 36.4803L28.0963 36.4954H28.0958Z" fill="#E9F5E3"/>
<path d="M27.8222 25.0653C27.8157 25.0475 27.8081 25.027 27.8011 25.0043C27.6001 24.39 27.2599 23.8135 26.8167 23.3375C26.5199 23.0177 26.1786 22.7432 25.8026 22.5212C25.7988 22.519 25.795 22.5163 25.7907 22.5141C24.3713 21.6756 23.4032 20.2688 23.1334 18.6539C23.1334 18.6512 23.1329 18.6485 23.1324 18.6463C23.1145 18.5393 23.1004 18.4334 23.0896 18.3313C23.0847 18.2649 23.082 18.1968 23.082 18.1293C23.082 16.6549 24.2846 15.4549 25.763 15.4549C26.1753 15.4549 26.5702 15.5457 26.9375 15.7245C27.0074 15.7693 27.0811 15.8088 27.1564 15.8417C27.3661 15.9347 27.5903 15.9822 27.8222 15.9822C28.0541 15.9822 28.274 15.9357 28.4831 15.8439C28.5611 15.8099 28.6375 15.7688 28.7101 15.7223C29.0758 15.5451 29.4696 15.4549 29.8803 15.4549C31.3587 15.4549 32.5619 16.6543 32.5619 18.1293C32.5619 18.2438 32.5548 18.3583 32.5402 18.4696V18.4718C32.5386 18.4815 32.5375 18.4918 32.5359 18.5015V18.5037C32.421 19.3314 32.1122 20.1358 31.6436 20.8301C31.1842 21.5108 30.5683 22.0916 29.8613 22.5104C29.8526 22.5158 29.8451 22.5201 29.838 22.5244L29.8353 22.526C29.4875 22.7324 29.1695 22.9842 28.8883 23.2748H28.8873L28.8277 23.3386C28.3829 23.8173 28.0535 24.3721 27.8493 24.9886C27.8395 25.0183 27.8303 25.0437 27.8217 25.0659H27.8222V25.0653Z" fill="#E9F5E3"/>
<path d="M19.6257 28.6041C19.3651 28.6041 19.1018 28.5852 18.8434 28.5485H18.8412C18.8315 28.5469 18.8212 28.5452 18.8114 28.5436H18.8093C18.6977 28.5263 18.5855 28.5015 18.475 28.4701C17.0535 28.0639 16.2289 26.5797 16.6363 25.1626C16.7496 24.7693 16.9446 24.4165 17.2165 24.1144C17.2816 24.0577 17.3422 23.9961 17.3964 23.9302C17.5421 23.7552 17.6483 23.5553 17.7117 23.3348C17.7756 23.1128 17.7919 22.8848 17.7599 22.6579C17.7485 22.5768 17.7307 22.4952 17.7074 22.4164C17.6364 22.0149 17.6575 21.6113 17.7713 21.2159C17.9349 20.6464 18.2729 20.1591 18.7486 19.8074C19.2091 19.4664 19.7768 19.2784 20.3473 19.2784C20.5965 19.2784 20.8457 19.3135 21.0878 19.3827C21.1528 19.4011 21.2178 19.4227 21.2807 19.4454C21.3749 19.4832 21.4708 19.5253 21.5673 19.5707L21.5721 19.5734L21.5808 19.5772C23.0625 20.2806 24.1508 21.5962 24.568 23.1879C24.569 23.1922 24.5701 23.197 24.5712 23.2014C24.6817 23.6228 24.8524 24.0253 25.0783 24.3981C25.4147 24.954 25.8768 25.4392 26.4137 25.8012C26.4337 25.8147 26.4511 25.8271 26.4668 25.8385C26.4429 25.8406 26.4158 25.8422 26.385 25.8439C25.7343 25.8698 25.1086 26.0324 24.5252 26.3269L24.4499 26.3647V26.3658C24.0907 26.5554 23.7597 26.7915 23.4639 27.0687L23.4623 27.0703C23.4558 27.0762 23.4498 27.0827 23.4428 27.0887C22.9308 27.57 22.3403 27.9455 21.6875 28.2065C21.0271 28.4701 20.3332 28.6041 19.6251 28.6041H19.6257Z" fill="#E9F5E3"/>
<path d="M35.997 28.6041C35.289 28.6041 34.595 28.4701 33.9346 28.2065C33.2818 27.9455 32.6913 27.57 32.1805 27.0897C32.1729 27.0827 32.1664 27.0768 32.1599 27.0703L32.1583 27.0687C31.8641 26.7926 31.5347 26.5576 31.1777 26.3685V26.3674L31.097 26.3269C30.513 26.0324 29.8873 25.8698 29.2372 25.8439C29.2063 25.8428 29.1787 25.8406 29.1554 25.8385C29.1711 25.8271 29.1884 25.8147 29.2085 25.8012C29.7454 25.4392 30.2069 24.954 30.5439 24.3981C30.7703 24.0253 30.941 23.6228 31.0509 23.2014C31.052 23.197 31.0531 23.1927 31.0542 23.1879C31.4713 21.5962 32.5602 20.2801 34.0424 19.5767C34.0451 19.5756 34.0473 19.5745 34.0495 19.5734C34.1475 19.527 34.2456 19.4843 34.3415 19.4459C34.4043 19.4227 34.4688 19.4016 34.5343 19.3827C34.7765 19.3135 35.0257 19.2784 35.2749 19.2784C35.8454 19.2784 36.4131 19.4664 36.8736 19.8074C37.3492 20.1596 37.6873 20.6464 37.8509 21.2159C37.9646 21.6108 37.9858 22.0149 37.9148 22.4164C37.891 22.4958 37.8731 22.5768 37.8623 22.6584C37.8303 22.8853 37.8465 23.1128 37.9105 23.3354C37.9739 23.5553 38.08 23.7557 38.2258 23.9307C38.2805 23.9961 38.3406 24.0577 38.4056 24.1144C38.6776 24.4165 38.8726 24.7687 38.9858 25.1626C39.183 25.8493 39.1007 26.5716 38.7534 27.1962C38.4062 27.8207 37.8357 28.2735 37.1472 28.4701C37.0366 28.5015 36.9245 28.5263 36.8129 28.5431H36.8107C36.801 28.5452 36.7912 28.5463 36.7809 28.5479H36.7788C36.5204 28.5852 36.2571 28.6036 35.9965 28.6036L35.997 28.6041Z" fill="#E9F5E3"/>
<path d="M24.3697 37.241C23.8014 37.241 23.2575 37.0643 22.7959 36.7299C22.4622 36.4884 22.1962 36.1831 22.0044 35.8233C21.9741 35.746 21.9378 35.6709 21.8966 35.6002C21.7818 35.4019 21.6285 35.2322 21.441 35.0961C21.2552 34.9616 21.0477 34.8686 20.8251 34.8205C20.7416 34.8027 20.6561 34.7908 20.5699 34.786C20.1696 34.7152 19.7979 34.5569 19.4659 34.3165C18.2697 33.4499 18.0037 31.7739 18.8726 30.581C18.9404 30.4886 19.0135 30.4 19.091 30.3179L19.0926 30.3163C19.0991 30.3087 19.1061 30.3017 19.1132 30.2947L19.1148 30.293C19.6419 29.7463 20.2655 29.3205 20.9676 29.0272C21.6539 28.7408 22.3804 28.5955 23.1253 28.5955C23.2965 28.5955 23.4693 28.6036 23.6394 28.6193C23.6497 28.6203 23.6578 28.6209 23.6665 28.622H23.6698C23.8068 28.6349 23.946 28.6414 24.0836 28.6414C24.348 28.6414 24.614 28.6182 24.8751 28.5723H24.8762L24.964 28.556C25.6059 28.4296 26.1991 28.1735 26.7279 27.7948C26.7533 27.7764 26.7756 27.7613 26.7956 27.7489C26.7907 27.7672 26.7842 27.7878 26.7766 27.811C26.5773 28.4258 26.5128 29.0915 26.5908 29.7365C26.6428 30.1693 26.7566 30.5913 26.93 30.9911C26.9316 30.9954 26.9337 30.9997 26.9354 31.0035C27.5893 32.5141 27.5437 34.2198 26.8097 35.6839C26.8086 35.6861 26.8075 35.6888 26.8059 35.6909C26.7571 35.7876 26.7062 35.8816 26.6547 35.9708C26.6195 36.0275 26.5816 36.0842 26.5415 36.1388C26.0388 36.8293 25.2267 37.2415 24.3697 37.2415V37.241Z" fill="#E9F5E3"/>
<path d="M31.2536 37.241C30.3965 37.241 29.5845 36.8288 29.0817 36.1383C29.0416 36.0837 29.0037 36.027 28.9685 35.9703C28.9176 35.8827 28.8677 35.7909 28.8201 35.6963L28.8179 35.6909L28.813 35.6817C28.0801 34.2176 28.0345 32.5125 28.6884 31.003C28.6906 30.9986 28.6922 30.9943 28.6938 30.9905C28.8672 30.5907 28.981 30.1688 29.033 29.736C29.111 29.0915 29.0465 28.4253 28.8472 27.8105C28.8396 27.7878 28.8336 27.7673 28.8282 27.7483C28.8482 27.7613 28.8705 27.7764 28.8959 27.7943C29.4241 28.173 30.0179 28.4296 30.6598 28.5555L30.7438 28.5723H30.7449C31.0071 28.6182 31.2742 28.6414 31.5402 28.6414C31.6778 28.6414 31.817 28.6349 31.954 28.6225H31.9573C31.9654 28.6214 31.9741 28.6203 31.9822 28.6198C32.1539 28.6041 32.3268 28.596 32.4979 28.596C33.2434 28.596 33.9693 28.7414 34.6557 29.0277C35.3583 29.3211 35.9813 29.7468 36.5085 30.2936L36.5101 30.2952C36.5171 30.3022 36.5242 30.3098 36.5307 30.3168L36.5323 30.3184C36.6098 30.4 36.6829 30.4886 36.7506 30.5815C37.6196 31.7745 37.3536 33.4504 36.1574 34.317C35.8253 34.5574 35.4537 34.7157 35.0533 34.7865C34.9672 34.7914 34.8811 34.8027 34.7982 34.8211C34.5755 34.8692 34.368 34.9621 34.1822 35.0966C33.9948 35.2328 33.8415 35.4019 33.7261 35.6007C33.6849 35.6715 33.6486 35.7466 33.6183 35.8238C33.4265 36.1837 33.1605 36.4889 32.8268 36.7304C32.3658 37.0649 31.8213 37.241 31.2536 37.241Z" fill="#E9F5E3"/>
</g>
<defs>
<clipPath id="clip0_937_2741">
<rect width="55.5506" height="58.0002" fill="white" transform="matrix(1 0 0 -1 0 58)"/>
</clipPath>
</defs>
</svg>
